G04 EAGLE Gerber RS-274X export*
G75*
%MOMM*%
%FSLAX34Y34*%
%LPD*%
%INSilkscreen Top*%
%IPPOS*%
%AMOC8*
5,1,8,0,0,1.08239X$1,22.5*%
G01*
%ADD10C,0.101600*%
%ADD11C,0.127000*%
%ADD12C,0.050000*%
%ADD13C,0.076200*%


D10*
X670228Y137508D02*
X670228Y149192D01*
X673474Y149192D01*
X673587Y149190D01*
X673700Y149184D01*
X673813Y149174D01*
X673926Y149160D01*
X674038Y149143D01*
X674149Y149121D01*
X674259Y149096D01*
X674369Y149066D01*
X674477Y149033D01*
X674584Y148996D01*
X674690Y148956D01*
X674794Y148911D01*
X674897Y148863D01*
X674998Y148812D01*
X675097Y148757D01*
X675194Y148699D01*
X675289Y148637D01*
X675382Y148572D01*
X675472Y148504D01*
X675560Y148433D01*
X675646Y148358D01*
X675729Y148281D01*
X675809Y148201D01*
X675886Y148118D01*
X675961Y148032D01*
X676032Y147944D01*
X676100Y147854D01*
X676165Y147761D01*
X676227Y147666D01*
X676285Y147569D01*
X676340Y147470D01*
X676391Y147369D01*
X676439Y147266D01*
X676484Y147162D01*
X676524Y147056D01*
X676561Y146949D01*
X676594Y146841D01*
X676624Y146731D01*
X676649Y146621D01*
X676671Y146510D01*
X676688Y146398D01*
X676702Y146285D01*
X676712Y146172D01*
X676718Y146059D01*
X676720Y145946D01*
X676719Y145946D02*
X676719Y140754D01*
X676720Y140754D02*
X676718Y140641D01*
X676712Y140528D01*
X676702Y140415D01*
X676688Y140302D01*
X676671Y140190D01*
X676649Y140079D01*
X676624Y139969D01*
X676594Y139859D01*
X676561Y139751D01*
X676524Y139644D01*
X676484Y139538D01*
X676439Y139434D01*
X676391Y139331D01*
X676340Y139230D01*
X676285Y139131D01*
X676227Y139034D01*
X676165Y138939D01*
X676100Y138846D01*
X676032Y138756D01*
X675961Y138668D01*
X675886Y138582D01*
X675809Y138499D01*
X675729Y138419D01*
X675646Y138342D01*
X675560Y138267D01*
X675472Y138196D01*
X675382Y138128D01*
X675289Y138063D01*
X675194Y138001D01*
X675097Y137943D01*
X674998Y137888D01*
X674897Y137837D01*
X674794Y137789D01*
X674690Y137744D01*
X674584Y137704D01*
X674477Y137667D01*
X674369Y137634D01*
X674259Y137604D01*
X674149Y137579D01*
X674038Y137557D01*
X673926Y137540D01*
X673813Y137526D01*
X673700Y137516D01*
X673587Y137510D01*
X673474Y137508D01*
X670228Y137508D01*
X682039Y146596D02*
X685285Y149192D01*
X685285Y137508D01*
X688530Y137508D02*
X682039Y137508D01*
X86170Y143162D02*
X86170Y131478D01*
X86170Y143162D02*
X89415Y143162D01*
X89528Y143160D01*
X89641Y143154D01*
X89754Y143144D01*
X89867Y143130D01*
X89979Y143113D01*
X90090Y143091D01*
X90200Y143066D01*
X90310Y143036D01*
X90418Y143003D01*
X90525Y142966D01*
X90631Y142926D01*
X90735Y142881D01*
X90838Y142833D01*
X90939Y142782D01*
X91038Y142727D01*
X91135Y142669D01*
X91230Y142607D01*
X91323Y142542D01*
X91413Y142474D01*
X91501Y142403D01*
X91587Y142328D01*
X91670Y142251D01*
X91750Y142171D01*
X91827Y142088D01*
X91902Y142002D01*
X91973Y141914D01*
X92041Y141824D01*
X92106Y141731D01*
X92168Y141636D01*
X92226Y141539D01*
X92281Y141440D01*
X92332Y141339D01*
X92380Y141236D01*
X92425Y141132D01*
X92465Y141026D01*
X92502Y140919D01*
X92535Y140811D01*
X92565Y140701D01*
X92590Y140591D01*
X92612Y140480D01*
X92629Y140368D01*
X92643Y140255D01*
X92653Y140142D01*
X92659Y140029D01*
X92661Y139916D01*
X92661Y134724D01*
X92662Y134724D02*
X92660Y134611D01*
X92654Y134498D01*
X92644Y134385D01*
X92630Y134272D01*
X92613Y134160D01*
X92591Y134049D01*
X92566Y133939D01*
X92536Y133829D01*
X92503Y133721D01*
X92466Y133614D01*
X92426Y133508D01*
X92381Y133404D01*
X92333Y133301D01*
X92282Y133200D01*
X92227Y133101D01*
X92169Y133004D01*
X92107Y132909D01*
X92042Y132816D01*
X91974Y132726D01*
X91903Y132638D01*
X91828Y132552D01*
X91751Y132469D01*
X91671Y132389D01*
X91588Y132312D01*
X91502Y132237D01*
X91414Y132166D01*
X91324Y132098D01*
X91231Y132033D01*
X91136Y131971D01*
X91039Y131913D01*
X90940Y131858D01*
X90839Y131807D01*
X90736Y131759D01*
X90632Y131714D01*
X90526Y131674D01*
X90419Y131637D01*
X90311Y131604D01*
X90201Y131574D01*
X90091Y131549D01*
X89980Y131527D01*
X89868Y131510D01*
X89755Y131496D01*
X89642Y131486D01*
X89529Y131480D01*
X89416Y131478D01*
X89415Y131478D02*
X86170Y131478D01*
X101551Y143162D02*
X101658Y143160D01*
X101764Y143154D01*
X101870Y143144D01*
X101976Y143131D01*
X102082Y143113D01*
X102186Y143092D01*
X102290Y143067D01*
X102393Y143038D01*
X102494Y143006D01*
X102594Y142969D01*
X102693Y142929D01*
X102791Y142886D01*
X102887Y142839D01*
X102981Y142788D01*
X103073Y142734D01*
X103163Y142677D01*
X103251Y142617D01*
X103336Y142553D01*
X103419Y142486D01*
X103500Y142416D01*
X103578Y142344D01*
X103654Y142268D01*
X103726Y142190D01*
X103796Y142109D01*
X103863Y142026D01*
X103927Y141941D01*
X103987Y141853D01*
X104044Y141763D01*
X104098Y141671D01*
X104149Y141577D01*
X104196Y141481D01*
X104239Y141383D01*
X104279Y141284D01*
X104316Y141184D01*
X104348Y141083D01*
X104377Y140980D01*
X104402Y140876D01*
X104423Y140772D01*
X104441Y140666D01*
X104454Y140560D01*
X104464Y140454D01*
X104470Y140348D01*
X104472Y140241D01*
X101551Y143162D02*
X101430Y143160D01*
X101309Y143154D01*
X101189Y143144D01*
X101068Y143131D01*
X100949Y143113D01*
X100829Y143092D01*
X100711Y143067D01*
X100594Y143038D01*
X100477Y143005D01*
X100362Y142969D01*
X100248Y142928D01*
X100135Y142885D01*
X100023Y142837D01*
X99914Y142786D01*
X99806Y142731D01*
X99699Y142673D01*
X99595Y142612D01*
X99493Y142547D01*
X99393Y142479D01*
X99295Y142408D01*
X99199Y142334D01*
X99106Y142257D01*
X99016Y142176D01*
X98928Y142093D01*
X98843Y142007D01*
X98760Y141918D01*
X98681Y141827D01*
X98604Y141733D01*
X98531Y141637D01*
X98461Y141539D01*
X98394Y141438D01*
X98330Y141335D01*
X98270Y141230D01*
X98213Y141123D01*
X98159Y141015D01*
X98109Y140905D01*
X98063Y140793D01*
X98020Y140680D01*
X97981Y140565D01*
X103499Y137969D02*
X103578Y138046D01*
X103654Y138127D01*
X103727Y138210D01*
X103797Y138295D01*
X103864Y138383D01*
X103928Y138473D01*
X103988Y138565D01*
X104045Y138660D01*
X104099Y138756D01*
X104150Y138854D01*
X104197Y138954D01*
X104241Y139056D01*
X104281Y139159D01*
X104317Y139263D01*
X104349Y139369D01*
X104378Y139475D01*
X104403Y139583D01*
X104425Y139691D01*
X104442Y139801D01*
X104456Y139910D01*
X104465Y140020D01*
X104471Y140131D01*
X104473Y140241D01*
X103498Y137969D02*
X97981Y131478D01*
X104472Y131478D01*
D11*
X535250Y142910D02*
X535250Y67910D01*
X535250Y142910D02*
X480750Y142910D01*
X480750Y67910D01*
X535250Y67910D01*
D12*
X526200Y85410D02*
X526202Y85494D01*
X526208Y85579D01*
X526218Y85662D01*
X526232Y85746D01*
X526249Y85828D01*
X526271Y85910D01*
X526296Y85990D01*
X526325Y86069D01*
X526358Y86147D01*
X526394Y86223D01*
X526434Y86298D01*
X526478Y86370D01*
X526524Y86441D01*
X526574Y86509D01*
X526627Y86574D01*
X526683Y86637D01*
X526742Y86698D01*
X526804Y86755D01*
X526868Y86810D01*
X526935Y86861D01*
X527004Y86910D01*
X527076Y86955D01*
X527149Y86996D01*
X527224Y87034D01*
X527301Y87069D01*
X527380Y87100D01*
X527460Y87127D01*
X527541Y87150D01*
X527623Y87170D01*
X527706Y87186D01*
X527789Y87198D01*
X527874Y87206D01*
X527958Y87210D01*
X528042Y87210D01*
X528126Y87206D01*
X528211Y87198D01*
X528294Y87186D01*
X528377Y87170D01*
X528459Y87150D01*
X528540Y87127D01*
X528620Y87100D01*
X528699Y87069D01*
X528776Y87034D01*
X528851Y86996D01*
X528924Y86955D01*
X528996Y86910D01*
X529065Y86861D01*
X529132Y86810D01*
X529196Y86755D01*
X529258Y86698D01*
X529317Y86637D01*
X529373Y86574D01*
X529426Y86509D01*
X529476Y86441D01*
X529522Y86370D01*
X529566Y86298D01*
X529606Y86223D01*
X529642Y86147D01*
X529675Y86069D01*
X529704Y85990D01*
X529729Y85910D01*
X529751Y85828D01*
X529768Y85746D01*
X529782Y85662D01*
X529792Y85579D01*
X529798Y85494D01*
X529800Y85410D01*
X529798Y85326D01*
X529792Y85241D01*
X529782Y85158D01*
X529768Y85074D01*
X529751Y84992D01*
X529729Y84910D01*
X529704Y84830D01*
X529675Y84751D01*
X529642Y84673D01*
X529606Y84597D01*
X529566Y84522D01*
X529522Y84450D01*
X529476Y84379D01*
X529426Y84311D01*
X529373Y84246D01*
X529317Y84183D01*
X529258Y84122D01*
X529196Y84065D01*
X529132Y84010D01*
X529065Y83959D01*
X528996Y83910D01*
X528924Y83865D01*
X528851Y83824D01*
X528776Y83786D01*
X528699Y83751D01*
X528620Y83720D01*
X528540Y83693D01*
X528459Y83670D01*
X528377Y83650D01*
X528294Y83634D01*
X528211Y83622D01*
X528126Y83614D01*
X528042Y83610D01*
X527958Y83610D01*
X527874Y83614D01*
X527789Y83622D01*
X527706Y83634D01*
X527623Y83650D01*
X527541Y83670D01*
X527460Y83693D01*
X527380Y83720D01*
X527301Y83751D01*
X527224Y83786D01*
X527149Y83824D01*
X527076Y83865D01*
X527004Y83910D01*
X526935Y83959D01*
X526868Y84010D01*
X526804Y84065D01*
X526742Y84122D01*
X526683Y84183D01*
X526627Y84246D01*
X526574Y84311D01*
X526524Y84379D01*
X526478Y84450D01*
X526434Y84522D01*
X526394Y84597D01*
X526358Y84673D01*
X526325Y84751D01*
X526296Y84830D01*
X526271Y84910D01*
X526249Y84992D01*
X526232Y85074D01*
X526218Y85158D01*
X526208Y85241D01*
X526202Y85326D01*
X526200Y85410D01*
D13*
X475511Y70204D02*
X469881Y70204D01*
X475511Y70203D02*
X475590Y70201D01*
X475669Y70195D01*
X475747Y70186D01*
X475825Y70172D01*
X475902Y70155D01*
X475978Y70134D01*
X476053Y70109D01*
X476126Y70081D01*
X476199Y70049D01*
X476269Y70013D01*
X476338Y69974D01*
X476404Y69932D01*
X476469Y69887D01*
X476531Y69838D01*
X476591Y69786D01*
X476648Y69732D01*
X476702Y69675D01*
X476754Y69615D01*
X476803Y69553D01*
X476848Y69488D01*
X476890Y69422D01*
X476929Y69353D01*
X476965Y69283D01*
X476997Y69210D01*
X477025Y69137D01*
X477050Y69062D01*
X477071Y68986D01*
X477088Y68909D01*
X477102Y68831D01*
X477111Y68753D01*
X477117Y68674D01*
X477119Y68595D01*
X477119Y67791D01*
X471489Y73590D02*
X469881Y75601D01*
X477119Y75601D01*
X477119Y73590D02*
X477119Y77612D01*
D10*
X724399Y73788D02*
X724399Y85472D01*
X724399Y73788D02*
X729592Y73788D01*
X734305Y73788D02*
X739498Y73788D01*
X734305Y73788D02*
X734305Y85472D01*
X739498Y85472D01*
X738200Y80279D02*
X734305Y80279D01*
X744189Y85472D02*
X744189Y73788D01*
X744189Y85472D02*
X747434Y85472D01*
X747547Y85470D01*
X747660Y85464D01*
X747773Y85454D01*
X747886Y85440D01*
X747998Y85423D01*
X748109Y85401D01*
X748219Y85376D01*
X748329Y85346D01*
X748437Y85313D01*
X748544Y85276D01*
X748650Y85236D01*
X748754Y85191D01*
X748857Y85143D01*
X748958Y85092D01*
X749057Y85037D01*
X749154Y84979D01*
X749249Y84917D01*
X749342Y84852D01*
X749432Y84784D01*
X749520Y84713D01*
X749606Y84638D01*
X749689Y84561D01*
X749769Y84481D01*
X749846Y84398D01*
X749921Y84312D01*
X749992Y84224D01*
X750060Y84134D01*
X750125Y84041D01*
X750187Y83946D01*
X750245Y83849D01*
X750300Y83750D01*
X750351Y83649D01*
X750399Y83546D01*
X750444Y83442D01*
X750484Y83336D01*
X750521Y83229D01*
X750554Y83121D01*
X750584Y83011D01*
X750609Y82901D01*
X750631Y82790D01*
X750648Y82678D01*
X750662Y82565D01*
X750672Y82452D01*
X750678Y82339D01*
X750680Y82226D01*
X750680Y77034D01*
X750678Y76921D01*
X750672Y76808D01*
X750662Y76695D01*
X750648Y76582D01*
X750631Y76470D01*
X750609Y76359D01*
X750584Y76249D01*
X750554Y76139D01*
X750521Y76031D01*
X750484Y75924D01*
X750444Y75818D01*
X750399Y75714D01*
X750351Y75611D01*
X750300Y75510D01*
X750245Y75411D01*
X750187Y75314D01*
X750125Y75219D01*
X750060Y75126D01*
X749992Y75036D01*
X749921Y74948D01*
X749846Y74862D01*
X749769Y74779D01*
X749689Y74699D01*
X749606Y74622D01*
X749520Y74547D01*
X749432Y74476D01*
X749342Y74408D01*
X749249Y74343D01*
X749154Y74281D01*
X749057Y74223D01*
X748958Y74168D01*
X748857Y74117D01*
X748754Y74069D01*
X748650Y74024D01*
X748544Y73984D01*
X748437Y73947D01*
X748329Y73914D01*
X748219Y73884D01*
X748109Y73859D01*
X747998Y73837D01*
X747886Y73820D01*
X747773Y73806D01*
X747660Y73796D01*
X747547Y73790D01*
X747434Y73788D01*
X744189Y73788D01*
X759245Y73788D02*
X755351Y85472D01*
X763140Y85472D02*
X759245Y73788D01*
X767543Y78332D02*
X775332Y78332D01*
X771437Y82226D02*
X771437Y74437D01*
X293008Y162828D02*
X293008Y174512D01*
X296903Y168021D01*
X300797Y174512D01*
X300797Y162828D01*
X306230Y166074D02*
X306230Y171266D01*
X306232Y171379D01*
X306238Y171492D01*
X306248Y171605D01*
X306262Y171718D01*
X306279Y171830D01*
X306301Y171941D01*
X306326Y172051D01*
X306356Y172161D01*
X306389Y172269D01*
X306426Y172376D01*
X306466Y172482D01*
X306511Y172586D01*
X306559Y172689D01*
X306610Y172790D01*
X306665Y172889D01*
X306723Y172986D01*
X306785Y173081D01*
X306850Y173174D01*
X306918Y173264D01*
X306989Y173352D01*
X307064Y173438D01*
X307141Y173521D01*
X307221Y173601D01*
X307304Y173678D01*
X307390Y173753D01*
X307478Y173824D01*
X307568Y173892D01*
X307661Y173957D01*
X307756Y174019D01*
X307853Y174077D01*
X307952Y174132D01*
X308053Y174183D01*
X308156Y174231D01*
X308260Y174276D01*
X308366Y174316D01*
X308473Y174353D01*
X308581Y174386D01*
X308691Y174416D01*
X308801Y174441D01*
X308912Y174463D01*
X309024Y174480D01*
X309137Y174494D01*
X309250Y174504D01*
X309363Y174510D01*
X309476Y174512D01*
X309589Y174510D01*
X309702Y174504D01*
X309815Y174494D01*
X309928Y174480D01*
X310040Y174463D01*
X310151Y174441D01*
X310261Y174416D01*
X310371Y174386D01*
X310479Y174353D01*
X310586Y174316D01*
X310692Y174276D01*
X310796Y174231D01*
X310899Y174183D01*
X311000Y174132D01*
X311099Y174077D01*
X311196Y174019D01*
X311291Y173957D01*
X311384Y173892D01*
X311474Y173824D01*
X311562Y173753D01*
X311648Y173678D01*
X311731Y173601D01*
X311811Y173521D01*
X311888Y173438D01*
X311963Y173352D01*
X312034Y173264D01*
X312102Y173174D01*
X312167Y173081D01*
X312229Y172986D01*
X312287Y172889D01*
X312342Y172790D01*
X312393Y172689D01*
X312441Y172586D01*
X312486Y172482D01*
X312526Y172376D01*
X312563Y172269D01*
X312596Y172161D01*
X312626Y172051D01*
X312651Y171941D01*
X312673Y171830D01*
X312690Y171718D01*
X312704Y171605D01*
X312714Y171492D01*
X312720Y171379D01*
X312722Y171266D01*
X312721Y171266D02*
X312721Y166074D01*
X312722Y166074D02*
X312720Y165961D01*
X312714Y165848D01*
X312704Y165735D01*
X312690Y165622D01*
X312673Y165510D01*
X312651Y165399D01*
X312626Y165289D01*
X312596Y165179D01*
X312563Y165071D01*
X312526Y164964D01*
X312486Y164858D01*
X312441Y164754D01*
X312393Y164651D01*
X312342Y164550D01*
X312287Y164451D01*
X312229Y164354D01*
X312167Y164259D01*
X312102Y164166D01*
X312034Y164076D01*
X311963Y163988D01*
X311888Y163902D01*
X311811Y163819D01*
X311731Y163739D01*
X311648Y163662D01*
X311562Y163587D01*
X311474Y163516D01*
X311384Y163448D01*
X311291Y163383D01*
X311196Y163321D01*
X311099Y163263D01*
X311000Y163208D01*
X310899Y163157D01*
X310796Y163109D01*
X310692Y163064D01*
X310586Y163024D01*
X310479Y162987D01*
X310371Y162954D01*
X310261Y162924D01*
X310151Y162899D01*
X310040Y162877D01*
X309928Y162860D01*
X309815Y162846D01*
X309702Y162836D01*
X309589Y162830D01*
X309476Y162828D01*
X309363Y162830D01*
X309250Y162836D01*
X309137Y162846D01*
X309024Y162860D01*
X308912Y162877D01*
X308801Y162899D01*
X308691Y162924D01*
X308581Y162954D01*
X308473Y162987D01*
X308366Y163024D01*
X308260Y163064D01*
X308156Y163109D01*
X308053Y163157D01*
X307952Y163208D01*
X307853Y163263D01*
X307756Y163321D01*
X307661Y163383D01*
X307568Y163448D01*
X307478Y163516D01*
X307390Y163587D01*
X307304Y163662D01*
X307221Y163739D01*
X307141Y163819D01*
X307064Y163902D01*
X306989Y163988D01*
X306918Y164076D01*
X306850Y164166D01*
X306785Y164259D01*
X306723Y164354D01*
X306665Y164451D01*
X306610Y164550D01*
X306559Y164651D01*
X306511Y164754D01*
X306466Y164858D01*
X306426Y164964D01*
X306389Y165071D01*
X306356Y165179D01*
X306326Y165289D01*
X306301Y165399D01*
X306279Y165510D01*
X306262Y165622D01*
X306248Y165735D01*
X306238Y165848D01*
X306232Y165961D01*
X306230Y166074D01*
X320144Y162828D02*
X320144Y174512D01*
X323389Y174512D02*
X316898Y174512D01*
X327566Y171266D02*
X327566Y166074D01*
X327566Y171266D02*
X327568Y171379D01*
X327574Y171492D01*
X327584Y171605D01*
X327598Y171718D01*
X327615Y171830D01*
X327637Y171941D01*
X327662Y172051D01*
X327692Y172161D01*
X327725Y172269D01*
X327762Y172376D01*
X327802Y172482D01*
X327847Y172586D01*
X327895Y172689D01*
X327946Y172790D01*
X328001Y172889D01*
X328059Y172986D01*
X328121Y173081D01*
X328186Y173174D01*
X328254Y173264D01*
X328325Y173352D01*
X328400Y173438D01*
X328477Y173521D01*
X328557Y173601D01*
X328640Y173678D01*
X328726Y173753D01*
X328814Y173824D01*
X328904Y173892D01*
X328997Y173957D01*
X329092Y174019D01*
X329189Y174077D01*
X329288Y174132D01*
X329389Y174183D01*
X329492Y174231D01*
X329596Y174276D01*
X329702Y174316D01*
X329809Y174353D01*
X329917Y174386D01*
X330027Y174416D01*
X330137Y174441D01*
X330248Y174463D01*
X330360Y174480D01*
X330473Y174494D01*
X330586Y174504D01*
X330699Y174510D01*
X330812Y174512D01*
X330925Y174510D01*
X331038Y174504D01*
X331151Y174494D01*
X331264Y174480D01*
X331376Y174463D01*
X331487Y174441D01*
X331597Y174416D01*
X331707Y174386D01*
X331815Y174353D01*
X331922Y174316D01*
X332028Y174276D01*
X332132Y174231D01*
X332235Y174183D01*
X332336Y174132D01*
X332435Y174077D01*
X332532Y174019D01*
X332627Y173957D01*
X332720Y173892D01*
X332810Y173824D01*
X332898Y173753D01*
X332984Y173678D01*
X333067Y173601D01*
X333147Y173521D01*
X333224Y173438D01*
X333299Y173352D01*
X333370Y173264D01*
X333438Y173174D01*
X333503Y173081D01*
X333565Y172986D01*
X333623Y172889D01*
X333678Y172790D01*
X333729Y172689D01*
X333777Y172586D01*
X333822Y172482D01*
X333862Y172376D01*
X333899Y172269D01*
X333932Y172161D01*
X333962Y172051D01*
X333987Y171941D01*
X334009Y171830D01*
X334026Y171718D01*
X334040Y171605D01*
X334050Y171492D01*
X334056Y171379D01*
X334058Y171266D01*
X334057Y171266D02*
X334057Y166074D01*
X334058Y166074D02*
X334056Y165961D01*
X334050Y165848D01*
X334040Y165735D01*
X334026Y165622D01*
X334009Y165510D01*
X333987Y165399D01*
X333962Y165289D01*
X333932Y165179D01*
X333899Y165071D01*
X333862Y164964D01*
X333822Y164858D01*
X333777Y164754D01*
X333729Y164651D01*
X333678Y164550D01*
X333623Y164451D01*
X333565Y164354D01*
X333503Y164259D01*
X333438Y164166D01*
X333370Y164076D01*
X333299Y163988D01*
X333224Y163902D01*
X333147Y163819D01*
X333067Y163739D01*
X332984Y163662D01*
X332898Y163587D01*
X332810Y163516D01*
X332720Y163448D01*
X332627Y163383D01*
X332532Y163321D01*
X332435Y163263D01*
X332336Y163208D01*
X332235Y163157D01*
X332132Y163109D01*
X332028Y163064D01*
X331922Y163024D01*
X331815Y162987D01*
X331707Y162954D01*
X331597Y162924D01*
X331487Y162899D01*
X331376Y162877D01*
X331264Y162860D01*
X331151Y162846D01*
X331038Y162836D01*
X330925Y162830D01*
X330812Y162828D01*
X330699Y162830D01*
X330586Y162836D01*
X330473Y162846D01*
X330360Y162860D01*
X330248Y162877D01*
X330137Y162899D01*
X330027Y162924D01*
X329917Y162954D01*
X329809Y162987D01*
X329702Y163024D01*
X329596Y163064D01*
X329492Y163109D01*
X329389Y163157D01*
X329288Y163208D01*
X329189Y163263D01*
X329092Y163321D01*
X328997Y163383D01*
X328904Y163448D01*
X328814Y163516D01*
X328726Y163587D01*
X328640Y163662D01*
X328557Y163739D01*
X328477Y163819D01*
X328400Y163902D01*
X328325Y163988D01*
X328254Y164076D01*
X328186Y164166D01*
X328121Y164259D01*
X328059Y164354D01*
X328001Y164451D01*
X327946Y164550D01*
X327895Y164651D01*
X327847Y164754D01*
X327802Y164858D01*
X327762Y164964D01*
X327725Y165071D01*
X327692Y165179D01*
X327662Y165289D01*
X327637Y165399D01*
X327615Y165510D01*
X327598Y165622D01*
X327584Y165735D01*
X327574Y165848D01*
X327568Y165961D01*
X327566Y166074D01*
X339451Y162828D02*
X339451Y174512D01*
X342696Y174512D01*
X342809Y174510D01*
X342922Y174504D01*
X343035Y174494D01*
X343148Y174480D01*
X343260Y174463D01*
X343371Y174441D01*
X343481Y174416D01*
X343591Y174386D01*
X343699Y174353D01*
X343806Y174316D01*
X343912Y174276D01*
X344016Y174231D01*
X344119Y174183D01*
X344220Y174132D01*
X344319Y174077D01*
X344416Y174019D01*
X344511Y173957D01*
X344604Y173892D01*
X344694Y173824D01*
X344782Y173753D01*
X344868Y173678D01*
X344951Y173601D01*
X345031Y173521D01*
X345108Y173438D01*
X345183Y173352D01*
X345254Y173264D01*
X345322Y173174D01*
X345387Y173081D01*
X345449Y172986D01*
X345507Y172889D01*
X345562Y172790D01*
X345613Y172689D01*
X345661Y172586D01*
X345706Y172482D01*
X345746Y172376D01*
X345783Y172269D01*
X345816Y172161D01*
X345846Y172051D01*
X345871Y171941D01*
X345893Y171830D01*
X345910Y171718D01*
X345924Y171605D01*
X345934Y171492D01*
X345940Y171379D01*
X345942Y171266D01*
X345940Y171153D01*
X345934Y171040D01*
X345924Y170927D01*
X345910Y170814D01*
X345893Y170702D01*
X345871Y170591D01*
X345846Y170481D01*
X345816Y170371D01*
X345783Y170263D01*
X345746Y170156D01*
X345706Y170050D01*
X345661Y169946D01*
X345613Y169843D01*
X345562Y169742D01*
X345507Y169643D01*
X345449Y169546D01*
X345387Y169451D01*
X345322Y169358D01*
X345254Y169268D01*
X345183Y169180D01*
X345108Y169094D01*
X345031Y169011D01*
X344951Y168931D01*
X344868Y168854D01*
X344782Y168779D01*
X344694Y168708D01*
X344604Y168640D01*
X344511Y168575D01*
X344416Y168513D01*
X344319Y168455D01*
X344220Y168400D01*
X344119Y168349D01*
X344016Y168301D01*
X343912Y168256D01*
X343806Y168216D01*
X343699Y168179D01*
X343591Y168146D01*
X343481Y168116D01*
X343371Y168091D01*
X343260Y168069D01*
X343148Y168052D01*
X343035Y168038D01*
X342922Y168028D01*
X342809Y168022D01*
X342696Y168020D01*
X342696Y168021D02*
X339451Y168021D01*
X343345Y168021D02*
X345942Y162828D01*
X350313Y161530D02*
X355506Y161530D01*
X360355Y162828D02*
X360355Y174512D01*
X360355Y162828D02*
X365547Y162828D01*
X290468Y46242D02*
X290468Y34558D01*
X294363Y39751D02*
X290468Y46242D01*
X294363Y39751D02*
X298257Y46242D01*
X298257Y34558D01*
X303690Y37804D02*
X303690Y42996D01*
X303692Y43109D01*
X303698Y43222D01*
X303708Y43335D01*
X303722Y43448D01*
X303739Y43560D01*
X303761Y43671D01*
X303786Y43781D01*
X303816Y43891D01*
X303849Y43999D01*
X303886Y44106D01*
X303926Y44212D01*
X303971Y44316D01*
X304019Y44419D01*
X304070Y44520D01*
X304125Y44619D01*
X304183Y44716D01*
X304245Y44811D01*
X304310Y44904D01*
X304378Y44994D01*
X304449Y45082D01*
X304524Y45168D01*
X304601Y45251D01*
X304681Y45331D01*
X304764Y45408D01*
X304850Y45483D01*
X304938Y45554D01*
X305028Y45622D01*
X305121Y45687D01*
X305216Y45749D01*
X305313Y45807D01*
X305412Y45862D01*
X305513Y45913D01*
X305616Y45961D01*
X305720Y46006D01*
X305826Y46046D01*
X305933Y46083D01*
X306041Y46116D01*
X306151Y46146D01*
X306261Y46171D01*
X306372Y46193D01*
X306484Y46210D01*
X306597Y46224D01*
X306710Y46234D01*
X306823Y46240D01*
X306936Y46242D01*
X307049Y46240D01*
X307162Y46234D01*
X307275Y46224D01*
X307388Y46210D01*
X307500Y46193D01*
X307611Y46171D01*
X307721Y46146D01*
X307831Y46116D01*
X307939Y46083D01*
X308046Y46046D01*
X308152Y46006D01*
X308256Y45961D01*
X308359Y45913D01*
X308460Y45862D01*
X308559Y45807D01*
X308656Y45749D01*
X308751Y45687D01*
X308844Y45622D01*
X308934Y45554D01*
X309022Y45483D01*
X309108Y45408D01*
X309191Y45331D01*
X309271Y45251D01*
X309348Y45168D01*
X309423Y45082D01*
X309494Y44994D01*
X309562Y44904D01*
X309627Y44811D01*
X309689Y44716D01*
X309747Y44619D01*
X309802Y44520D01*
X309853Y44419D01*
X309901Y44316D01*
X309946Y44212D01*
X309986Y44106D01*
X310023Y43999D01*
X310056Y43891D01*
X310086Y43781D01*
X310111Y43671D01*
X310133Y43560D01*
X310150Y43448D01*
X310164Y43335D01*
X310174Y43222D01*
X310180Y43109D01*
X310182Y42996D01*
X310181Y42996D02*
X310181Y37804D01*
X310182Y37804D02*
X310180Y37691D01*
X310174Y37578D01*
X310164Y37465D01*
X310150Y37352D01*
X310133Y37240D01*
X310111Y37129D01*
X310086Y37019D01*
X310056Y36909D01*
X310023Y36801D01*
X309986Y36694D01*
X309946Y36588D01*
X309901Y36484D01*
X309853Y36381D01*
X309802Y36280D01*
X309747Y36181D01*
X309689Y36084D01*
X309627Y35989D01*
X309562Y35896D01*
X309494Y35806D01*
X309423Y35718D01*
X309348Y35632D01*
X309271Y35549D01*
X309191Y35469D01*
X309108Y35392D01*
X309022Y35317D01*
X308934Y35246D01*
X308844Y35178D01*
X308751Y35113D01*
X308656Y35051D01*
X308559Y34993D01*
X308460Y34938D01*
X308359Y34887D01*
X308256Y34839D01*
X308152Y34794D01*
X308046Y34754D01*
X307939Y34717D01*
X307831Y34684D01*
X307721Y34654D01*
X307611Y34629D01*
X307500Y34607D01*
X307388Y34590D01*
X307275Y34576D01*
X307162Y34566D01*
X307049Y34560D01*
X306936Y34558D01*
X306823Y34560D01*
X306710Y34566D01*
X306597Y34576D01*
X306484Y34590D01*
X306372Y34607D01*
X306261Y34629D01*
X306151Y34654D01*
X306041Y34684D01*
X305933Y34717D01*
X305826Y34754D01*
X305720Y34794D01*
X305616Y34839D01*
X305513Y34887D01*
X305412Y34938D01*
X305313Y34993D01*
X305216Y35051D01*
X305121Y35113D01*
X305028Y35178D01*
X304938Y35246D01*
X304850Y35317D01*
X304764Y35392D01*
X304681Y35469D01*
X304601Y35549D01*
X304524Y35632D01*
X304449Y35718D01*
X304378Y35806D01*
X304310Y35896D01*
X304245Y35989D01*
X304183Y36084D01*
X304125Y36181D01*
X304070Y36280D01*
X304019Y36381D01*
X303971Y36484D01*
X303926Y36588D01*
X303886Y36694D01*
X303849Y36801D01*
X303816Y36909D01*
X303786Y37019D01*
X303761Y37129D01*
X303739Y37240D01*
X303722Y37352D01*
X303708Y37465D01*
X303698Y37578D01*
X303692Y37691D01*
X303690Y37804D01*
X317604Y34558D02*
X317604Y46242D01*
X320849Y46242D02*
X314358Y46242D01*
X325026Y42996D02*
X325026Y37804D01*
X325026Y42996D02*
X325028Y43109D01*
X325034Y43222D01*
X325044Y43335D01*
X325058Y43448D01*
X325075Y43560D01*
X325097Y43671D01*
X325122Y43781D01*
X325152Y43891D01*
X325185Y43999D01*
X325222Y44106D01*
X325262Y44212D01*
X325307Y44316D01*
X325355Y44419D01*
X325406Y44520D01*
X325461Y44619D01*
X325519Y44716D01*
X325581Y44811D01*
X325646Y44904D01*
X325714Y44994D01*
X325785Y45082D01*
X325860Y45168D01*
X325937Y45251D01*
X326017Y45331D01*
X326100Y45408D01*
X326186Y45483D01*
X326274Y45554D01*
X326364Y45622D01*
X326457Y45687D01*
X326552Y45749D01*
X326649Y45807D01*
X326748Y45862D01*
X326849Y45913D01*
X326952Y45961D01*
X327056Y46006D01*
X327162Y46046D01*
X327269Y46083D01*
X327377Y46116D01*
X327487Y46146D01*
X327597Y46171D01*
X327708Y46193D01*
X327820Y46210D01*
X327933Y46224D01*
X328046Y46234D01*
X328159Y46240D01*
X328272Y46242D01*
X328385Y46240D01*
X328498Y46234D01*
X328611Y46224D01*
X328724Y46210D01*
X328836Y46193D01*
X328947Y46171D01*
X329057Y46146D01*
X329167Y46116D01*
X329275Y46083D01*
X329382Y46046D01*
X329488Y46006D01*
X329592Y45961D01*
X329695Y45913D01*
X329796Y45862D01*
X329895Y45807D01*
X329992Y45749D01*
X330087Y45687D01*
X330180Y45622D01*
X330270Y45554D01*
X330358Y45483D01*
X330444Y45408D01*
X330527Y45331D01*
X330607Y45251D01*
X330684Y45168D01*
X330759Y45082D01*
X330830Y44994D01*
X330898Y44904D01*
X330963Y44811D01*
X331025Y44716D01*
X331083Y44619D01*
X331138Y44520D01*
X331189Y44419D01*
X331237Y44316D01*
X331282Y44212D01*
X331322Y44106D01*
X331359Y43999D01*
X331392Y43891D01*
X331422Y43781D01*
X331447Y43671D01*
X331469Y43560D01*
X331486Y43448D01*
X331500Y43335D01*
X331510Y43222D01*
X331516Y43109D01*
X331518Y42996D01*
X331517Y42996D02*
X331517Y37804D01*
X331518Y37804D02*
X331516Y37691D01*
X331510Y37578D01*
X331500Y37465D01*
X331486Y37352D01*
X331469Y37240D01*
X331447Y37129D01*
X331422Y37019D01*
X331392Y36909D01*
X331359Y36801D01*
X331322Y36694D01*
X331282Y36588D01*
X331237Y36484D01*
X331189Y36381D01*
X331138Y36280D01*
X331083Y36181D01*
X331025Y36084D01*
X330963Y35989D01*
X330898Y35896D01*
X330830Y35806D01*
X330759Y35718D01*
X330684Y35632D01*
X330607Y35549D01*
X330527Y35469D01*
X330444Y35392D01*
X330358Y35317D01*
X330270Y35246D01*
X330180Y35178D01*
X330087Y35113D01*
X329992Y35051D01*
X329895Y34993D01*
X329796Y34938D01*
X329695Y34887D01*
X329592Y34839D01*
X329488Y34794D01*
X329382Y34754D01*
X329275Y34717D01*
X329167Y34684D01*
X329057Y34654D01*
X328947Y34629D01*
X328836Y34607D01*
X328724Y34590D01*
X328611Y34576D01*
X328498Y34566D01*
X328385Y34560D01*
X328272Y34558D01*
X328159Y34560D01*
X328046Y34566D01*
X327933Y34576D01*
X327820Y34590D01*
X327708Y34607D01*
X327597Y34629D01*
X327487Y34654D01*
X327377Y34684D01*
X327269Y34717D01*
X327162Y34754D01*
X327056Y34794D01*
X326952Y34839D01*
X326849Y34887D01*
X326748Y34938D01*
X326649Y34993D01*
X326552Y35051D01*
X326457Y35113D01*
X326364Y35178D01*
X326274Y35246D01*
X326186Y35317D01*
X326100Y35392D01*
X326017Y35469D01*
X325937Y35549D01*
X325860Y35632D01*
X325785Y35718D01*
X325714Y35806D01*
X325646Y35896D01*
X325581Y35989D01*
X325519Y36084D01*
X325461Y36181D01*
X325406Y36280D01*
X325355Y36381D01*
X325307Y36484D01*
X325262Y36588D01*
X325222Y36694D01*
X325185Y36801D01*
X325152Y36909D01*
X325122Y37019D01*
X325097Y37129D01*
X325075Y37240D01*
X325058Y37352D01*
X325044Y37465D01*
X325034Y37578D01*
X325028Y37691D01*
X325026Y37804D01*
X336911Y34558D02*
X336911Y46242D01*
X340156Y46242D01*
X340269Y46240D01*
X340382Y46234D01*
X340495Y46224D01*
X340608Y46210D01*
X340720Y46193D01*
X340831Y46171D01*
X340941Y46146D01*
X341051Y46116D01*
X341159Y46083D01*
X341266Y46046D01*
X341372Y46006D01*
X341476Y45961D01*
X341579Y45913D01*
X341680Y45862D01*
X341779Y45807D01*
X341876Y45749D01*
X341971Y45687D01*
X342064Y45622D01*
X342154Y45554D01*
X342242Y45483D01*
X342328Y45408D01*
X342411Y45331D01*
X342491Y45251D01*
X342568Y45168D01*
X342643Y45082D01*
X342714Y44994D01*
X342782Y44904D01*
X342847Y44811D01*
X342909Y44716D01*
X342967Y44619D01*
X343022Y44520D01*
X343073Y44419D01*
X343121Y44316D01*
X343166Y44212D01*
X343206Y44106D01*
X343243Y43999D01*
X343276Y43891D01*
X343306Y43781D01*
X343331Y43671D01*
X343353Y43560D01*
X343370Y43448D01*
X343384Y43335D01*
X343394Y43222D01*
X343400Y43109D01*
X343402Y42996D01*
X343400Y42883D01*
X343394Y42770D01*
X343384Y42657D01*
X343370Y42544D01*
X343353Y42432D01*
X343331Y42321D01*
X343306Y42211D01*
X343276Y42101D01*
X343243Y41993D01*
X343206Y41886D01*
X343166Y41780D01*
X343121Y41676D01*
X343073Y41573D01*
X343022Y41472D01*
X342967Y41373D01*
X342909Y41276D01*
X342847Y41181D01*
X342782Y41088D01*
X342714Y40998D01*
X342643Y40910D01*
X342568Y40824D01*
X342491Y40741D01*
X342411Y40661D01*
X342328Y40584D01*
X342242Y40509D01*
X342154Y40438D01*
X342064Y40370D01*
X341971Y40305D01*
X341876Y40243D01*
X341779Y40185D01*
X341680Y40130D01*
X341579Y40079D01*
X341476Y40031D01*
X341372Y39986D01*
X341266Y39946D01*
X341159Y39909D01*
X341051Y39876D01*
X340941Y39846D01*
X340831Y39821D01*
X340720Y39799D01*
X340608Y39782D01*
X340495Y39768D01*
X340382Y39758D01*
X340269Y39752D01*
X340156Y39750D01*
X340156Y39751D02*
X336911Y39751D01*
X340805Y39751D02*
X343402Y34558D01*
X347773Y33260D02*
X352966Y33260D01*
X357866Y34558D02*
X357866Y46242D01*
X361111Y46242D01*
X361224Y46240D01*
X361337Y46234D01*
X361450Y46224D01*
X361563Y46210D01*
X361675Y46193D01*
X361786Y46171D01*
X361896Y46146D01*
X362006Y46116D01*
X362114Y46083D01*
X362221Y46046D01*
X362327Y46006D01*
X362431Y45961D01*
X362534Y45913D01*
X362635Y45862D01*
X362734Y45807D01*
X362831Y45749D01*
X362926Y45687D01*
X363019Y45622D01*
X363109Y45554D01*
X363197Y45483D01*
X363283Y45408D01*
X363366Y45331D01*
X363446Y45251D01*
X363523Y45168D01*
X363598Y45082D01*
X363669Y44994D01*
X363737Y44904D01*
X363802Y44811D01*
X363864Y44716D01*
X363922Y44619D01*
X363977Y44520D01*
X364028Y44419D01*
X364076Y44316D01*
X364121Y44212D01*
X364161Y44106D01*
X364198Y43999D01*
X364231Y43891D01*
X364261Y43781D01*
X364286Y43671D01*
X364308Y43560D01*
X364325Y43448D01*
X364339Y43335D01*
X364349Y43222D01*
X364355Y43109D01*
X364357Y42996D01*
X364355Y42883D01*
X364349Y42770D01*
X364339Y42657D01*
X364325Y42544D01*
X364308Y42432D01*
X364286Y42321D01*
X364261Y42211D01*
X364231Y42101D01*
X364198Y41993D01*
X364161Y41886D01*
X364121Y41780D01*
X364076Y41676D01*
X364028Y41573D01*
X363977Y41472D01*
X363922Y41373D01*
X363864Y41276D01*
X363802Y41181D01*
X363737Y41088D01*
X363669Y40998D01*
X363598Y40910D01*
X363523Y40824D01*
X363446Y40741D01*
X363366Y40661D01*
X363283Y40584D01*
X363197Y40509D01*
X363109Y40438D01*
X363019Y40370D01*
X362926Y40305D01*
X362831Y40243D01*
X362734Y40185D01*
X362635Y40130D01*
X362534Y40079D01*
X362431Y40031D01*
X362327Y39986D01*
X362221Y39946D01*
X362114Y39909D01*
X362006Y39876D01*
X361896Y39846D01*
X361786Y39821D01*
X361675Y39799D01*
X361563Y39782D01*
X361450Y39768D01*
X361337Y39758D01*
X361224Y39752D01*
X361111Y39750D01*
X361111Y39751D02*
X357866Y39751D01*
X361760Y39751D02*
X364357Y34558D01*
X668528Y64008D02*
X668528Y75692D01*
X671774Y75692D01*
X671887Y75690D01*
X672000Y75684D01*
X672113Y75674D01*
X672226Y75660D01*
X672338Y75643D01*
X672449Y75621D01*
X672559Y75596D01*
X672669Y75566D01*
X672777Y75533D01*
X672884Y75496D01*
X672990Y75456D01*
X673094Y75411D01*
X673197Y75363D01*
X673298Y75312D01*
X673397Y75257D01*
X673494Y75199D01*
X673589Y75137D01*
X673682Y75072D01*
X673772Y75004D01*
X673860Y74933D01*
X673946Y74858D01*
X674029Y74781D01*
X674109Y74701D01*
X674186Y74618D01*
X674261Y74532D01*
X674332Y74444D01*
X674400Y74354D01*
X674465Y74261D01*
X674527Y74166D01*
X674585Y74069D01*
X674640Y73970D01*
X674691Y73869D01*
X674739Y73766D01*
X674784Y73662D01*
X674824Y73556D01*
X674861Y73449D01*
X674894Y73341D01*
X674924Y73231D01*
X674949Y73121D01*
X674971Y73010D01*
X674988Y72898D01*
X675002Y72785D01*
X675012Y72672D01*
X675018Y72559D01*
X675020Y72446D01*
X675018Y72333D01*
X675012Y72220D01*
X675002Y72107D01*
X674988Y71994D01*
X674971Y71882D01*
X674949Y71771D01*
X674924Y71661D01*
X674894Y71551D01*
X674861Y71443D01*
X674824Y71336D01*
X674784Y71230D01*
X674739Y71126D01*
X674691Y71023D01*
X674640Y70922D01*
X674585Y70823D01*
X674527Y70726D01*
X674465Y70631D01*
X674400Y70538D01*
X674332Y70448D01*
X674261Y70360D01*
X674186Y70274D01*
X674109Y70191D01*
X674029Y70111D01*
X673946Y70034D01*
X673860Y69959D01*
X673772Y69888D01*
X673682Y69820D01*
X673589Y69755D01*
X673494Y69693D01*
X673397Y69635D01*
X673298Y69580D01*
X673197Y69529D01*
X673094Y69481D01*
X672990Y69436D01*
X672884Y69396D01*
X672777Y69359D01*
X672669Y69326D01*
X672559Y69296D01*
X672449Y69271D01*
X672338Y69249D01*
X672226Y69232D01*
X672113Y69218D01*
X672000Y69208D01*
X671887Y69202D01*
X671774Y69200D01*
X671774Y69201D02*
X668528Y69201D01*
X672423Y69201D02*
X675019Y64008D01*
X679884Y73096D02*
X683130Y75692D01*
X683130Y64008D01*
X686375Y64008D02*
X679884Y64008D01*
X80518Y61468D02*
X80518Y73152D01*
X83764Y73152D01*
X83877Y73150D01*
X83990Y73144D01*
X84103Y73134D01*
X84216Y73120D01*
X84328Y73103D01*
X84439Y73081D01*
X84549Y73056D01*
X84659Y73026D01*
X84767Y72993D01*
X84874Y72956D01*
X84980Y72916D01*
X85084Y72871D01*
X85187Y72823D01*
X85288Y72772D01*
X85387Y72717D01*
X85484Y72659D01*
X85579Y72597D01*
X85672Y72532D01*
X85762Y72464D01*
X85850Y72393D01*
X85936Y72318D01*
X86019Y72241D01*
X86099Y72161D01*
X86176Y72078D01*
X86251Y71992D01*
X86322Y71904D01*
X86390Y71814D01*
X86455Y71721D01*
X86517Y71626D01*
X86575Y71529D01*
X86630Y71430D01*
X86681Y71329D01*
X86729Y71226D01*
X86774Y71122D01*
X86814Y71016D01*
X86851Y70909D01*
X86884Y70801D01*
X86914Y70691D01*
X86939Y70581D01*
X86961Y70470D01*
X86978Y70358D01*
X86992Y70245D01*
X87002Y70132D01*
X87008Y70019D01*
X87010Y69906D01*
X87008Y69793D01*
X87002Y69680D01*
X86992Y69567D01*
X86978Y69454D01*
X86961Y69342D01*
X86939Y69231D01*
X86914Y69121D01*
X86884Y69011D01*
X86851Y68903D01*
X86814Y68796D01*
X86774Y68690D01*
X86729Y68586D01*
X86681Y68483D01*
X86630Y68382D01*
X86575Y68283D01*
X86517Y68186D01*
X86455Y68091D01*
X86390Y67998D01*
X86322Y67908D01*
X86251Y67820D01*
X86176Y67734D01*
X86099Y67651D01*
X86019Y67571D01*
X85936Y67494D01*
X85850Y67419D01*
X85762Y67348D01*
X85672Y67280D01*
X85579Y67215D01*
X85484Y67153D01*
X85387Y67095D01*
X85288Y67040D01*
X85187Y66989D01*
X85084Y66941D01*
X84980Y66896D01*
X84874Y66856D01*
X84767Y66819D01*
X84659Y66786D01*
X84549Y66756D01*
X84439Y66731D01*
X84328Y66709D01*
X84216Y66692D01*
X84103Y66678D01*
X83990Y66668D01*
X83877Y66662D01*
X83764Y66660D01*
X83764Y66661D02*
X80518Y66661D01*
X84413Y66661D02*
X87009Y61468D01*
X98365Y70231D02*
X98363Y70338D01*
X98357Y70444D01*
X98347Y70550D01*
X98334Y70656D01*
X98316Y70762D01*
X98295Y70866D01*
X98270Y70970D01*
X98241Y71073D01*
X98209Y71174D01*
X98172Y71274D01*
X98132Y71373D01*
X98089Y71471D01*
X98042Y71567D01*
X97991Y71661D01*
X97937Y71753D01*
X97880Y71843D01*
X97820Y71931D01*
X97756Y72016D01*
X97689Y72099D01*
X97619Y72180D01*
X97547Y72258D01*
X97471Y72334D01*
X97393Y72406D01*
X97312Y72476D01*
X97229Y72543D01*
X97144Y72607D01*
X97056Y72667D01*
X96966Y72724D01*
X96874Y72778D01*
X96780Y72829D01*
X96684Y72876D01*
X96586Y72919D01*
X96487Y72959D01*
X96387Y72996D01*
X96286Y73028D01*
X96183Y73057D01*
X96079Y73082D01*
X95975Y73103D01*
X95869Y73121D01*
X95763Y73134D01*
X95657Y73144D01*
X95551Y73150D01*
X95444Y73152D01*
X95323Y73150D01*
X95202Y73144D01*
X95082Y73134D01*
X94961Y73121D01*
X94842Y73103D01*
X94722Y73082D01*
X94604Y73057D01*
X94487Y73028D01*
X94370Y72995D01*
X94255Y72959D01*
X94141Y72918D01*
X94028Y72875D01*
X93916Y72827D01*
X93807Y72776D01*
X93699Y72721D01*
X93592Y72663D01*
X93488Y72602D01*
X93386Y72537D01*
X93286Y72469D01*
X93188Y72398D01*
X93092Y72324D01*
X92999Y72247D01*
X92909Y72166D01*
X92821Y72083D01*
X92736Y71997D01*
X92653Y71908D01*
X92574Y71817D01*
X92497Y71723D01*
X92424Y71627D01*
X92354Y71529D01*
X92287Y71428D01*
X92223Y71325D01*
X92163Y71220D01*
X92106Y71113D01*
X92052Y71005D01*
X92002Y70895D01*
X91956Y70783D01*
X91913Y70670D01*
X91874Y70555D01*
X97392Y67959D02*
X97471Y68036D01*
X97547Y68117D01*
X97620Y68200D01*
X97690Y68285D01*
X97757Y68373D01*
X97821Y68463D01*
X97881Y68555D01*
X97938Y68650D01*
X97992Y68746D01*
X98043Y68844D01*
X98090Y68944D01*
X98134Y69046D01*
X98174Y69149D01*
X98210Y69253D01*
X98242Y69359D01*
X98271Y69465D01*
X98296Y69573D01*
X98318Y69681D01*
X98335Y69791D01*
X98349Y69900D01*
X98358Y70010D01*
X98364Y70121D01*
X98366Y70231D01*
X97392Y67959D02*
X91874Y61468D01*
X98365Y61468D01*
X12068Y74548D02*
X12068Y86232D01*
X12068Y74548D02*
X17261Y74548D01*
X21974Y74548D02*
X27167Y74548D01*
X21974Y74548D02*
X21974Y86232D01*
X27167Y86232D01*
X25869Y81039D02*
X21974Y81039D01*
X31857Y86232D02*
X31857Y74548D01*
X31857Y86232D02*
X35103Y86232D01*
X35216Y86230D01*
X35329Y86224D01*
X35442Y86214D01*
X35555Y86200D01*
X35667Y86183D01*
X35778Y86161D01*
X35888Y86136D01*
X35998Y86106D01*
X36106Y86073D01*
X36213Y86036D01*
X36319Y85996D01*
X36423Y85951D01*
X36526Y85903D01*
X36627Y85852D01*
X36726Y85797D01*
X36823Y85739D01*
X36918Y85677D01*
X37011Y85612D01*
X37101Y85544D01*
X37189Y85473D01*
X37275Y85398D01*
X37358Y85321D01*
X37438Y85241D01*
X37515Y85158D01*
X37590Y85072D01*
X37661Y84984D01*
X37729Y84894D01*
X37794Y84801D01*
X37856Y84706D01*
X37914Y84609D01*
X37969Y84510D01*
X38020Y84409D01*
X38068Y84306D01*
X38113Y84202D01*
X38153Y84096D01*
X38190Y83989D01*
X38223Y83881D01*
X38253Y83771D01*
X38278Y83661D01*
X38300Y83550D01*
X38317Y83438D01*
X38331Y83325D01*
X38341Y83212D01*
X38347Y83099D01*
X38349Y82986D01*
X38349Y77794D01*
X38347Y77681D01*
X38341Y77568D01*
X38331Y77455D01*
X38317Y77342D01*
X38300Y77230D01*
X38278Y77119D01*
X38253Y77009D01*
X38223Y76899D01*
X38190Y76791D01*
X38153Y76684D01*
X38113Y76578D01*
X38068Y76474D01*
X38020Y76371D01*
X37969Y76270D01*
X37914Y76171D01*
X37856Y76074D01*
X37794Y75979D01*
X37729Y75886D01*
X37661Y75796D01*
X37590Y75708D01*
X37515Y75622D01*
X37438Y75539D01*
X37358Y75459D01*
X37275Y75382D01*
X37189Y75307D01*
X37101Y75236D01*
X37011Y75168D01*
X36918Y75103D01*
X36823Y75041D01*
X36726Y74983D01*
X36627Y74928D01*
X36526Y74877D01*
X36423Y74829D01*
X36319Y74784D01*
X36213Y74744D01*
X36106Y74707D01*
X35998Y74674D01*
X35888Y74644D01*
X35778Y74619D01*
X35667Y74597D01*
X35555Y74580D01*
X35442Y74566D01*
X35329Y74556D01*
X35216Y74550D01*
X35103Y74548D01*
X31857Y74548D01*
X44049Y74548D02*
X44049Y86232D01*
X44049Y81039D02*
X50540Y81039D01*
X50540Y86232D02*
X50540Y74548D01*
X55973Y79092D02*
X63763Y79092D01*
X59868Y82986D02*
X59868Y75197D01*
X38862Y95814D02*
X38862Y98411D01*
X38862Y95814D02*
X38860Y95715D01*
X38854Y95615D01*
X38845Y95516D01*
X38832Y95418D01*
X38815Y95320D01*
X38794Y95222D01*
X38769Y95126D01*
X38741Y95031D01*
X38709Y94937D01*
X38674Y94844D01*
X38635Y94752D01*
X38592Y94662D01*
X38547Y94574D01*
X38497Y94487D01*
X38445Y94403D01*
X38389Y94320D01*
X38331Y94240D01*
X38269Y94162D01*
X38204Y94087D01*
X38136Y94014D01*
X38066Y93944D01*
X37993Y93876D01*
X37918Y93811D01*
X37840Y93749D01*
X37760Y93691D01*
X37677Y93635D01*
X37593Y93583D01*
X37506Y93533D01*
X37418Y93488D01*
X37328Y93445D01*
X37236Y93406D01*
X37143Y93371D01*
X37049Y93339D01*
X36954Y93311D01*
X36858Y93286D01*
X36760Y93265D01*
X36662Y93248D01*
X36564Y93235D01*
X36465Y93226D01*
X36365Y93220D01*
X36266Y93218D01*
X29774Y93218D01*
X29675Y93220D01*
X29575Y93226D01*
X29476Y93235D01*
X29378Y93248D01*
X29280Y93266D01*
X29182Y93286D01*
X29086Y93311D01*
X28990Y93339D01*
X28896Y93371D01*
X28803Y93406D01*
X28712Y93445D01*
X28622Y93488D01*
X28533Y93533D01*
X28447Y93583D01*
X28362Y93635D01*
X28280Y93691D01*
X28200Y93750D01*
X28122Y93811D01*
X28046Y93876D01*
X27973Y93944D01*
X27903Y94014D01*
X27835Y94087D01*
X27770Y94163D01*
X27709Y94241D01*
X27650Y94321D01*
X27594Y94403D01*
X27542Y94488D01*
X27493Y94574D01*
X27447Y94663D01*
X27404Y94753D01*
X27365Y94844D01*
X27330Y94937D01*
X27298Y95031D01*
X27270Y95127D01*
X27245Y95223D01*
X27225Y95321D01*
X27207Y95419D01*
X27194Y95517D01*
X27185Y95616D01*
X27179Y95715D01*
X27177Y95815D01*
X27178Y95814D02*
X27178Y98411D01*
X29774Y102776D02*
X27178Y106022D01*
X38862Y106022D01*
X38862Y109267D02*
X38862Y102776D01*
X718312Y95871D02*
X718312Y93274D01*
X718310Y93175D01*
X718304Y93075D01*
X718295Y92976D01*
X718282Y92878D01*
X718265Y92780D01*
X718244Y92682D01*
X718219Y92586D01*
X718191Y92491D01*
X718159Y92397D01*
X718124Y92304D01*
X718085Y92212D01*
X718042Y92122D01*
X717997Y92034D01*
X717947Y91947D01*
X717895Y91863D01*
X717839Y91780D01*
X717781Y91700D01*
X717719Y91622D01*
X717654Y91547D01*
X717586Y91474D01*
X717516Y91404D01*
X717443Y91336D01*
X717368Y91271D01*
X717290Y91209D01*
X717210Y91151D01*
X717127Y91095D01*
X717043Y91043D01*
X716956Y90993D01*
X716868Y90948D01*
X716778Y90905D01*
X716686Y90866D01*
X716593Y90831D01*
X716499Y90799D01*
X716404Y90771D01*
X716308Y90746D01*
X716210Y90725D01*
X716112Y90708D01*
X716014Y90695D01*
X715915Y90686D01*
X715815Y90680D01*
X715716Y90678D01*
X709224Y90678D01*
X709125Y90680D01*
X709025Y90686D01*
X708926Y90695D01*
X708828Y90708D01*
X708730Y90726D01*
X708632Y90746D01*
X708536Y90771D01*
X708440Y90799D01*
X708346Y90831D01*
X708253Y90866D01*
X708162Y90905D01*
X708072Y90948D01*
X707983Y90993D01*
X707897Y91043D01*
X707812Y91095D01*
X707730Y91151D01*
X707650Y91210D01*
X707572Y91271D01*
X707496Y91336D01*
X707423Y91404D01*
X707353Y91474D01*
X707285Y91547D01*
X707220Y91623D01*
X707159Y91701D01*
X707100Y91781D01*
X707044Y91863D01*
X706992Y91948D01*
X706943Y92034D01*
X706897Y92123D01*
X706854Y92213D01*
X706815Y92304D01*
X706780Y92397D01*
X706748Y92491D01*
X706720Y92587D01*
X706695Y92683D01*
X706675Y92781D01*
X706657Y92879D01*
X706644Y92977D01*
X706635Y93076D01*
X706629Y93175D01*
X706627Y93275D01*
X706628Y93274D02*
X706628Y95871D01*
X706628Y103806D02*
X706630Y103913D01*
X706636Y104019D01*
X706646Y104125D01*
X706659Y104231D01*
X706677Y104337D01*
X706698Y104441D01*
X706723Y104545D01*
X706752Y104648D01*
X706784Y104749D01*
X706821Y104849D01*
X706861Y104948D01*
X706904Y105046D01*
X706951Y105142D01*
X707002Y105236D01*
X707056Y105328D01*
X707113Y105418D01*
X707173Y105506D01*
X707237Y105591D01*
X707304Y105674D01*
X707374Y105755D01*
X707446Y105833D01*
X707522Y105909D01*
X707600Y105981D01*
X707681Y106051D01*
X707764Y106118D01*
X707849Y106182D01*
X707937Y106242D01*
X708027Y106299D01*
X708119Y106353D01*
X708213Y106404D01*
X708309Y106451D01*
X708407Y106494D01*
X708506Y106534D01*
X708606Y106571D01*
X708707Y106603D01*
X708810Y106632D01*
X708914Y106657D01*
X709018Y106678D01*
X709124Y106696D01*
X709230Y106709D01*
X709336Y106719D01*
X709442Y106725D01*
X709549Y106727D01*
X706628Y103806D02*
X706630Y103685D01*
X706636Y103564D01*
X706646Y103444D01*
X706659Y103323D01*
X706677Y103204D01*
X706698Y103084D01*
X706723Y102966D01*
X706752Y102849D01*
X706785Y102732D01*
X706821Y102617D01*
X706862Y102503D01*
X706905Y102390D01*
X706953Y102278D01*
X707004Y102169D01*
X707059Y102061D01*
X707117Y101954D01*
X707178Y101850D01*
X707243Y101748D01*
X707311Y101648D01*
X707382Y101550D01*
X707456Y101454D01*
X707533Y101361D01*
X707614Y101271D01*
X707697Y101183D01*
X707783Y101098D01*
X707872Y101015D01*
X707963Y100936D01*
X708057Y100859D01*
X708153Y100786D01*
X708251Y100716D01*
X708352Y100649D01*
X708455Y100585D01*
X708560Y100525D01*
X708667Y100467D01*
X708775Y100414D01*
X708885Y100364D01*
X708997Y100318D01*
X709110Y100275D01*
X709225Y100236D01*
X711821Y105753D02*
X711743Y105832D01*
X711663Y105908D01*
X711580Y105981D01*
X711494Y106051D01*
X711407Y106118D01*
X711316Y106182D01*
X711224Y106242D01*
X711130Y106300D01*
X711033Y106354D01*
X710935Y106404D01*
X710835Y106451D01*
X710734Y106495D01*
X710631Y106535D01*
X710526Y106571D01*
X710421Y106603D01*
X710314Y106632D01*
X710207Y106657D01*
X710098Y106679D01*
X709989Y106696D01*
X709880Y106710D01*
X709770Y106719D01*
X709659Y106725D01*
X709549Y106727D01*
X711821Y105754D02*
X718312Y100236D01*
X718312Y106727D01*
M02*
