G04 EAGLE Gerber RS-274X export*
G75*
%MOMM*%
%FSLAX34Y34*%
%LPD*%
%INSoldermask Top*%
%IPPOS*%
%AMOC8*
5,1,8,0,0,1.08239X$1,22.5*%
G01*
%ADD10R,1.603200X1.603200*%
%ADD11R,1.203200X0.453200*%
%ADD12R,1.603200X1.003200*%
%ADD13R,2.743200X1.473200*%
%ADD14R,2.743200X5.283200*%
%ADD15R,1.503200X1.803200*%
%ADD16R,1.703200X1.503200*%
%ADD17R,1.943200X1.943200*%
%ADD18C,0.959600*%


D10*
X661720Y127000D03*
X699720Y127000D03*
X112980Y115570D03*
X74980Y115570D03*
D11*
X518000Y85410D03*
X518000Y90410D03*
X518000Y95410D03*
X518000Y100410D03*
X518000Y105410D03*
X518000Y110410D03*
X518000Y115410D03*
X518000Y120410D03*
X518000Y125410D03*
X498000Y85410D03*
X498000Y90410D03*
X498000Y95410D03*
X498000Y100410D03*
X498000Y105410D03*
X498000Y110410D03*
X498000Y115410D03*
X498000Y120410D03*
X498000Y125410D03*
D12*
X508000Y65910D03*
X508000Y144910D03*
D13*
X764540Y93980D03*
X764540Y115570D03*
D14*
X289560Y138430D03*
X289560Y69850D03*
D15*
X671220Y88900D03*
X690220Y88900D03*
X83210Y86360D03*
X102210Y86360D03*
D13*
X15240Y116840D03*
X15240Y95250D03*
D16*
X52070Y95910D03*
X52070Y114910D03*
X731520Y93370D03*
X731520Y112370D03*
D17*
X212090Y41910D03*
X212090Y166370D03*
X570230Y166370D03*
X570230Y41910D03*
D18*
X312420Y157480D03*
X546100Y88900D03*
X127000Y88900D03*
X472442Y74930D03*
X584200Y88900D03*
X419100Y50800D03*
X482600Y60970D03*
X127000Y114300D03*
M02*
